#!OML:ASF F:\VICON\USERDATA\INSTALL\rory3\rory3.ASF
:FULLY-SPECIFIED
:DEGREES
894
root 6.90665 16.1649 19.6531 -342.554 4.51632 358.642
lowerback -1.60176 -2.01107 -3.95887
upperback -5.97314 -2.81539 -1.42402
thorax -5.17333 -1.25334 0.815066
lowerneck -15.3167 1.43558 -0.282819
upperneck 35.3503 2.04283 0.658589
head 14.7932 0.914861 0.664653
rclavicle 3.01159e-014 2.06736e-014
rhumerus -39.7818 13.7863 -92.5207
rradius 73.2176
rwrist -87.2855
rhand 11.3813 7.18396
rfingers 7.12502
rthumb 36.4353 -19.0244
lclavicle 3.01159e-014 2.06736e-014
lhumerus -33.9553 -38.2026 94.2783
lradius 57.0595
lwrist 53.67
lhand 34.648 28.9141
lfingers 7.12502
lthumb 57.8301 44.7869
rfemur -72.5845 3.41634 19.1362
rtibia 40.2443
rfoot -15.2264 -36.2687
rtoes 36.0288
lfemur -27.7084 7.80611 -28.3193
ltibia 46.3188
lfoot -29.5985 -11.4648
ltoes -28.7771
895
root 6.87394 16.1161 19.8393 -342.403 4.5049 359.049
lowerback -2.3998 -1.95343 -5.15455
upperback -6.04068 -2.69872 -1.37145
thorax -4.75001 -1.1459 1.50179
lowerneck -15.0307 1.33448 -0.395386
upperneck 35.4942 1.90009 0.748408
head 14.7929 0.853134 0.696583
rclavicle 1.8487e-014 3.97569e-015
rhumerus -39.5927 13.4376 -92.4397
rradius 72.1552
rwrist -87.3951
rhand 11.8319 6.78711
rfingers 7.12502
rthumb 36.8617 -19.313
lclavicle 1.8487e-014 3.97569e-015
lhumerus -33.3254 -37.897 94.3778
lradius 55.2256
lwrist 52.3411
lhand 34.5498 28.8615
lfingers 7.12502
lthumb 57.7443 44.8101
rfemur -73.0539 3.95773 19.4334
rtibia 40.0207
rfoot -13.115 -37.6685
rtoes 33.6219
lfemur -27.1548 8.28903 -28.7119
ltibia 46.0425
lfoot -29.6816 -10.7256
ltoes -29.0477
896
root 6.93899 16.1069 19.9777 -342.406 6.67668 359.116
lowerback -2.27045 -2.39311 -3.96253
upperback -6.3445 -3.30001 -1.42599
thorax -5.16674 -1.49057 0.804265
lowerneck -14.5132 1.18233 -0.498602
upperneck 35.7637 1.66783 0.865441
head 14.7993 0.758146 0.722717
rclavicle -4.48259e-014 -2.06736e-014
rhumerus -39.882 13.0603 -92.4607
rradius 71.5278
rwrist -88.3408
rhand 11.0512 6.31123
rfingers 7.12502
rthumb 36.1227 -19.975
lclavicle -4.48259e-014 -2.06736e-014
lhumerus -33.026 -37.6645 94.7156
lradius 53.3175
lwrist 50.9154
lhand 34.9414 28.7045
lfingers 7.12502
lthumb 58.0861 44.3484
rfemur -72.9995 2.21421 20.4911
rtibia 40.0754
rfoot -14.3335 -37.3949
rtoes 35.5461
lfemur -26.1904 6.92126 -28.5441
ltibia 45.5222
lfoot -29.3635 -9.84135
ltoes -28.4949
897
root 6.94898 16.0694 20.1461 -342.2 7.74318 359.792
lowerback -2.74859 -2.55611 -4.48507
upperback -6.51437 -3.50115 -1.54066
thorax -5.04851 -1.56824 0.95884
lowerneck -14.0373 0.982037 -0.642986
upperneck 35.8056 1.37984 0.968293
head 14.7092 0.633872 0.739915
rclavicle 1.35671e-014 -2.62396e-014
rhumerus -39.8498 12.3204 -92.0955
rradius 70.6047
rwrist -88.4752
rhand 11.2203 5.50142
rfingers 7.12502
rthumb 36.2829 -20.7451
lclavicle 1.35671e-014 -2.62396e-014
lhumerus -32.425 -37.7936 95.0103
lradius 51.4502
lwrist 49.6133
lhand 35.2174 28.8537
lfingers 7.12502
lthumb 58.3264 44.2786
rfemur -73.2086 1.52129 20.7785
rtibia 39.8814
rfoot -13.1755 -38.2847
rtoes 34.8215
lfemur -25.4894 6.36823 -29.094
ltibia 45.204
lfoot -29.3059 -8.74208
ltoes -28.6944
898
root 6.97316 16.0484 20.3266 -342.327 9.04279 359.911
lowerback -3.22596 -2.72104 -4.25375
upperback -6.39988 -3.68279 -1.51287
thorax -4.65871 -1.67832 0.833968
lowerneck -14.2714 0.719066 -1.14605
upperneck 36.0991 1.02129 1.3229
head 14.9002 0.462314 0.924333
rclavicle -2.3059e-014 -1.11319e-014
rhumerus -39.4438 11.8971 -91.6513
rradius 69.4563
rwrist -88.4811
rhand 11.2456 4.94977
rfingers 7.12502
rthumb 36.3068 -21.2908
lclavicle -2.3059e-014 -1.11319e-014
lhumerus -31.4984 -38.1691 95.1374
lradius 49.5986
lwrist 48.5788
lhand 34.8776 29.0855
lfingers 7.12502
lthumb 58.0305 44.7795
rfemur -73.1329 0.705514 21.6374
rtibia 39.8564
rfoot -8.99671 -39.8699
rtoes 29.3765
lfemur -24.2486 5.7332 -28.9063
ltibia 44.7161
lfoot -29.3058 -8.56704
ltoes -27.0893
